<svg width="645" height="164" viewBox="0 0 645 164" fill="none" xmlns="http://www.w3.org/2000/svg">
<mask id="path-1-inside-1_581_388" fill="white">
<path d="M645 154C645 159.523 640.523 164 635 164H10C4.47716 164 0 159.523 0 154V94C0 88.4772 4.47715 84 10 84H74C79.5228 84 84 79.5228 84 74V10C84 4.47715 88.4772 0 94 0H635C640.523 0 645 4.47715 645 10V154Z"/>
</mask>
<path d="M645 154C645 159.523 640.523 164 635 164H10C4.47716 164 0 159.523 0 154V94C0 88.4772 4.47715 84 10 84H74C79.5228 84 84 79.5228 84 74V10C84 4.47715 88.4772 0 94 0H635C640.523 0 645 4.47715 645 10V154Z" fill="#D2CBCB"/>
<path d="M635 164V163H10V164V165H635V164ZM0 154H1V94H0H-1V154H0ZM10 84V85H74V84V83H10V84ZM84 74H85V10H84H83V74H84ZM94 0V1H635V0V-1H94V0ZM645 10H644V154H645H646V10H645ZM635 0V1C639.971 1 644 5.02944 644 10H645H646C646 3.92487 641.075 -1 635 -1V0ZM84 10H85C85 5.02944 89.0294 1 94 1V0V-1C87.9249 -1 83 3.92487 83 10H84ZM74 84V85C80.0751 85 85 80.0751 85 74H84H83C83 78.9706 78.9706 83 74 83V84ZM0 94H1C1 89.0294 5.02944 85 10 85V84V83C3.92487 83 -1 87.9249 -1 94H0ZM10 164V163C5.02944 163 1 158.971 1 154H0H-1C-1 160.075 3.92487 165 10 165V164ZM635 164V165C641.075 165 646 160.075 646 154H645H644C644 158.971 639.971 163 635 163V164Z" fill="#232323" mask="url(#path-1-inside-1_581_388)"/>
</svg>
