<svg width="308" height="394" viewBox="0 0 308 394" fill="none" xmlns="http://www.w3.org/2000/svg">
<path d="M55.7795 272.6C40.2583 274.448 12.126 273.37 0 272.6C9.70079 334.974 89.7323 404.279 179.465 392.728C251.25 383.488 295.066 308.792 308 272.6C294.419 274.448 270.005 273.37 259.496 272.6C283.748 244.878 295.874 196.364 266.772 147.851C243.49 109.04 247.37 82.396 252.22 73.9253C230.879 75.7735 223.927 114.738 223.118 133.99C186.255 98.8752 178.656 30.0322 179.465 0C136.781 14.7851 114.793 92.4067 109.134 129.369C101.373 90.5586 78.4147 76.2355 67.9055 73.9253C80.0315 131.68 38.8032 136.3 26.6772 196.364C16.9764 244.416 42.0367 267.209 55.7795 272.6Z" fill="#FF6701"/>
</svg>
